<?xml version="1.0" encoding="UTF-8"?>
<svg width="700pt" height="700pt" version="1.1" viewBox="0 0 700 700" xmlns="http://www.w3.org/2000/svg" xmlns:xlink="http://www.w3.org/1999/xlink">
 <defs>
  <symbol id="m" overflow="visible">
   <path d="m29.312-1.75c-1.5117 0.78125-3.0898 1.3711-4.7344 1.7656-1.6367 0.40625-3.3398 0.60938-5.1094 0.60938-5.3125 0-9.5273-1.4844-12.641-4.4531-3.1055-2.9688-4.6562-7-4.6562-12.094s1.5508-9.125 4.6562-12.094c3.1133-2.9688 7.3281-4.4531 12.641-4.4531 1.7695 0 3.4727 0.19922 5.1094 0.59375 1.6445 0.39844 3.2227 0.99219 4.7344 1.7812v6.5938c-1.5312-1.0391-3.0391-1.8008-4.5156-2.2812-1.4805-0.48828-3.0391-0.73438-4.6719-0.73438-2.9375 0-5.2461 0.94531-6.9219 2.8281-1.6797 1.875-2.5156 4.4648-2.5156 7.7656 0 3.293 0.83594 5.8828 2.5156 7.7656 1.6758 1.875 3.9844 2.8125 6.9219 2.8125 1.6328 0 3.1914-0.23828 4.6719-0.71875 1.4766-0.48828 2.9844-1.2539 4.5156-2.2969z"/>
  </symbol>
  <symbol id="i" overflow="visible">
   <path d="m21.453-17.406c-0.67969-0.3125-1.3516-0.53906-2.0156-0.6875-0.65625-0.15625-1.3203-0.23438-1.9844-0.23438-1.9688 0-3.4844 0.63281-4.5469 1.8906-1.0547 1.2617-1.5781 3.0703-1.5781 5.4219v11.016h-7.6562v-23.922h7.6562v3.9219c0.97656-1.5625 2.1016-2.7031 3.375-3.4219 1.2812-0.71875 2.8125-1.0781 4.5938-1.0781 0.25 0 0.52344 0.011719 0.82812 0.03125 0.30078 0.023438 0.73438 0.070312 1.2969 0.14062z"/>
  </symbol>
  <symbol id="b" overflow="visible">
   <path d="m27.562-12.031v2.1875h-17.891c0.1875 1.793 0.83203 3.1367 1.9375 4.0312 1.1133 0.89844 2.6719 1.3438 4.6719 1.3438 1.6016 0 3.25-0.23438 4.9375-0.70312 1.6875-0.47656 3.4219-1.2031 5.2031-2.1719v5.8906c-1.8047 0.6875-3.6094 1.2031-5.4219 1.5469-1.8125 0.35156-3.6211 0.53125-5.4219 0.53125-4.3359 0-7.7031-1.0977-10.109-3.2969-2.3984-2.207-3.5938-5.2969-3.5938-9.2656 0-3.9062 1.1758-6.9727 3.5312-9.2031 2.3633-2.2383 5.6094-3.3594 9.7344-3.3594 3.7578 0 6.7695 1.1367 9.0312 3.4062 2.2578 2.2617 3.3906 5.2812 3.3906 9.0625zm-7.8594-2.5312c0-1.457-0.42969-2.6289-1.2812-3.5156-0.84375-0.89453-1.9492-1.3438-3.3125-1.3438-1.4922 0-2.6992 0.41797-3.625 1.25-0.91797 0.83594-1.4922 2.0391-1.7188 3.6094z"/>
  </symbol>
  <symbol id="h" overflow="visible">
   <path d="m14.391-10.766c-1.5938 0-2.793 0.27344-3.5938 0.8125-0.80469 0.54297-1.2031 1.3398-1.2031 2.3906 0 0.96875 0.32031 1.7305 0.96875 2.2812 0.64453 0.54297 1.5469 0.8125 2.7031 0.8125 1.4375 0 2.6445-0.51562 3.625-1.5469 0.98828-1.0312 1.4844-2.3203 1.4844-3.875v-0.875zm11.688-2.8906v13.656h-7.7031v-3.5469c-1.0312 1.4492-2.1875 2.5078-3.4688 3.1719s-2.8398 1-4.6719 1c-2.4805 0-4.4961-0.72266-6.0469-2.1719-1.543-1.4453-2.3125-3.3203-2.3125-5.625 0-2.8125 0.96094-4.8672 2.8906-6.1719 1.9375-1.3125 4.9688-1.9688 9.0938-1.9688h4.5156v-0.60938c0-1.207-0.48047-2.0938-1.4375-2.6562-0.94922-0.5625-2.4375-0.84375-4.4688-0.84375-1.6367 0-3.1562 0.16797-4.5625 0.5-1.4062 0.32422-2.7188 0.8125-3.9375 1.4688v-5.8281c1.6445-0.40625 3.2891-0.70703 4.9375-0.90625 1.6562-0.20703 3.3047-0.3125 4.9531-0.3125 4.3203 0 7.4375 0.85547 9.3438 2.5625 1.9141 1.6992 2.875 4.4609 2.875 8.2812z"/>
  </symbol>
  <symbol id="g" overflow="visible">
   <path d="m12.031-30.719v6.7969h7.875v5.4688h-7.875v10.141c0 1.1172 0.21875 1.8711 0.65625 2.2656 0.4375 0.38672 1.3125 0.57812 2.625 0.57812h3.9375v5.4688h-6.5625c-3.0234 0-5.1641-0.62891-6.4219-1.8906-1.2617-1.2578-1.8906-3.3984-1.8906-6.4219v-10.141h-3.7969v-5.4688h3.7969v-6.7969z"/>
  </symbol>
  <symbol id="f" overflow="visible">
   <path d="m19.953-20.422v-12.812h7.6875v33.234h-7.6875v-3.4531c-1.0547 1.4062-2.2148 2.4375-3.4844 3.0938-1.2734 0.65625-2.7422 0.98438-4.4062 0.98438-2.9492 0-5.3711-1.1719-7.2656-3.5156-1.8867-2.3438-2.8281-5.3594-2.8281-9.0469s0.94141-6.7031 2.8281-9.0469c1.8945-2.3438 4.3164-3.5156 7.2656-3.5156 1.6562 0 3.1172 0.33594 4.3906 1 1.2812 0.65625 2.4453 1.6836 3.5 3.0781zm-5.0469 15.484c1.6445 0 2.8945-0.59766 3.75-1.7969 0.86328-1.1953 1.2969-2.9297 1.2969-5.2031 0-2.2812-0.43359-4.0195-1.2969-5.2188-0.85547-1.1953-2.1055-1.7969-3.75-1.7969-1.625 0-2.8711 0.60156-3.7344 1.7969-0.85547 1.1992-1.2812 2.9375-1.2812 5.2188 0 2.2734 0.42578 4.0078 1.2812 5.2031 0.86328 1.1992 2.1094 1.7969 3.7344 1.7969z"/>
  </symbol>
  <symbol id="a" overflow="visible">
   <path d="m16.406-4.9375c1.6328 0 2.8828-0.59766 3.75-1.7969 0.86328-1.1953 1.2969-2.9297 1.2969-5.2031 0-2.2812-0.43359-4.0195-1.2969-5.2188-0.86719-1.1953-2.1172-1.7969-3.75-1.7969-1.6367 0-2.8906 0.60547-3.7656 1.8125-0.875 1.1992-1.3125 2.9336-1.3125 5.2031 0 2.2617 0.4375 3.9961 1.3125 5.2031 0.875 1.1992 2.1289 1.7969 3.7656 1.7969zm-5.0781-15.484c1.0508-1.3945 2.2188-2.4219 3.5-3.0781 1.2812-0.66406 2.7539-1 4.4219-1 2.9453 0 5.3672 1.1719 7.2656 3.5156 1.8945 2.3438 2.8438 5.3594 2.8438 9.0469s-0.94922 6.7031-2.8438 9.0469c-1.8984 2.3438-4.3203 3.5156-7.2656 3.5156-1.668 0-3.1406-0.33594-4.4219-1s-2.4492-1.6914-3.5-3.0781v3.4531h-7.6562v-33.234h7.6562z"/>
  </symbol>
  <symbol id="e" overflow="visible">
   <path d="m0.53125-23.922h7.6562l6.4219 16.234 5.4688-16.234h7.6562l-10.062 26.188c-1.0117 2.6641-2.1953 4.5234-3.5469 5.5781-1.3438 1.0625-3.1211 1.5938-5.3281 1.5938h-4.4219v-5.0156h2.3906c1.3008 0 2.2422-0.21094 2.8281-0.625 0.59375-0.40625 1.0547-1.1484 1.3906-2.2188l0.20312-0.65625z"/>
  </symbol>
  <symbol id="d" overflow="visible">
   <path d="m4.0156-31.891h8.2188v31.891h-8.2188z"/>
  </symbol>
  <symbol id="l" overflow="visible">
   <path d="m23-23.172v6.2344c-1.0312-0.71875-2.0742-1.2422-3.125-1.5781-1.043-0.34375-2.125-0.51562-3.25-0.51562-2.1367 0-3.8047 0.625-5 1.875-1.1875 1.2422-1.7812 2.9805-1.7812 5.2188 0 2.2305 0.59375 3.9688 1.7812 5.2188 1.1953 1.25 2.8633 1.875 5 1.875 1.1953 0 2.332-0.17578 3.4062-0.53125 1.0703-0.36328 2.0625-0.89453 2.9688-1.5938v6.2656c-1.1875 0.4375-2.4023 0.76562-3.6406 0.98438-1.2305 0.22656-2.4648 0.34375-3.7031 0.34375-4.3125 0-7.6875-1.1094-10.125-3.3281s-3.6562-5.2969-3.6562-9.2344c0-3.9453 1.2188-7.0234 3.6562-9.2344 2.4375-2.2188 5.8125-3.3281 10.125-3.3281 1.25 0 2.4844 0.10938 3.7031 0.32812s2.4297 0.55469 3.6406 1z"/>
  </symbol>
  <symbol id="c" overflow="visible">
   <path d="m15.062-19.031c-1.6992 0-2.9961 0.60938-3.8906 1.8281-0.88672 1.2188-1.3281 2.9766-1.3281 5.2656 0 2.293 0.44141 4.0469 1.3281 5.2656 0.89453 1.2188 2.1914 1.8281 3.8906 1.8281 1.6641 0 2.9375-0.60938 3.8125-1.8281 0.88281-1.2188 1.3281-2.9727 1.3281-5.2656 0-2.2891-0.44531-4.0469-1.3281-5.2656-0.875-1.2188-2.1484-1.8281-3.8125-1.8281zm0-5.4688c4.1133 0 7.3281 1.1094 9.6406 3.3281s3.4688 5.2969 3.4688 9.2344c0 3.9297-1.1562 7.0078-3.4688 9.2344-2.3125 2.2188-5.5273 3.3281-9.6406 3.3281-4.1367 0-7.3711-1.1094-9.7031-3.3281-2.3242-2.2266-3.4844-5.3047-3.4844-9.2344 0-3.9375 1.1602-7.0156 3.4844-9.2344 2.332-2.2188 5.5664-3.3281 9.7031-3.3281z"/>
  </symbol>
  <symbol id="k" overflow="visible">
   <path d="m27.734-14.562v14.562h-7.7031v-11.156c0-2.0625-0.046875-3.4844-0.14062-4.2656-0.085937-0.78125-0.24219-1.3594-0.46875-1.7344-0.30469-0.5-0.71094-0.88281-1.2188-1.1562-0.51172-0.28125-1.0938-0.42188-1.75-0.42188-1.5938 0-2.8516 0.61719-3.7656 1.8438-0.90625 1.2305-1.3594 2.9375-1.3594 5.125v11.766h-7.6562v-23.922h7.6562v3.5c1.1445-1.3945 2.3633-2.4219 3.6562-3.0781 1.3008-0.66406 2.7383-1 4.3125-1 2.7578 0 4.8516 0.85156 6.2812 2.5469 1.4375 1.6875 2.1562 4.1523 2.1562 7.3906z"/>
  </symbol>
  <symbol id="j" overflow="visible">
   <path d="m9.7188-12.234-8.625-11.688h8.0938l4.8906 7.0938 4.9531-7.0938h8.0938l-8.625 11.641 9.0625 12.281h-8.0938l-5.3906-7.5625-5.3125 7.5625h-8.1094z"/>
  </symbol>
 </defs>
 <g>
  <path d="m547.05 502.86-17.5-159.43c-1.625-15.082-8.7891-29.023-20.105-39.129-11.316-10.102-25.977-15.645-41.145-15.559h-42.438c-4.832 0-8.75 3.918-8.75 8.75s3.918 8.75 8.75 8.75h11.637v70h-8.75c-6.9609 0-13.641 2.7656-18.562 7.6875s-7.6875 11.602-7.6875 18.562v52.5c0 2.3203 0.92188 4.5469 2.5625 6.1875s3.8672 2.5625 6.1875 2.5625h10.414c4.832 0 8.75-3.918 8.75-8.75s-3.918-8.75-8.75-8.75h-1.6641v-43.75c0-4.832 3.918-8.75 8.75-8.75h35c2.3203 0 4.5469 0.92188 6.1875 2.5625s2.5625 3.8672 2.5625 6.1875v43.75c-4.832 0-8.75 3.918-8.75 8.75s3.918 8.75 8.75 8.75h8.75c2.3203 0 4.5469-0.92188 6.1875-2.5625s2.5625-3.8672 2.5625-6.1875v-52.5c0-6.9609-2.7656-13.641-7.6875-18.562s-11.602-7.6875-18.562-7.6875h-8.75v-70h14.086c10.844-0.0625 21.324 3.9062 29.406 11.133 8.0859 7.2266 13.195 17.199 14.344 27.98l17.5 159.34c0.80078 7.4336-1.6094 14.855-6.6211 20.402-5.0117 5.543-12.152 8.6914-19.629 8.6484h-14.086v-26.25c0-2.3203-0.92188-4.5469-2.5625-6.1875s-3.8672-2.5625-6.1875-2.5625h-61.25c-4.832 0-8.75 3.918-8.75 8.75v26.25h-52.5v-192.5c29.75-1.3125 39.461-9.3633 41.211-11.113 1.8672-1.8945 2.7656-4.5352 2.4531-7.1758l-6.6484-59.852-0.003906 0.003906c29.047-10.703 53.375-31.328 68.688-58.227 15.312-26.902 20.625-58.352 15-88.789-5.6289-30.438-21.832-57.91-45.75-77.559-23.918-19.648-54.012-30.211-84.965-29.824-30.953 0.39062-60.77 11.707-84.188 31.953-23.418 20.242-38.926 48.113-43.785 78.684v0.52344c-0.042969 0.49609-0.042969 0.99219 0 1.4883-1.1055 6.1562-1.7773 12.387-2.0117 18.637-0.070312 26.785 8.0898 52.941 23.383 74.934 15.289 21.988 36.973 38.746 62.105 48.004l-6.7383 59.852c-0.31641 2.6367 0.58594 5.2773 2.4492 7.1719 1.75 1.6641 11.375 9.625 41.211 11.023l0.003906 192.77h-143.33c-7.6484 0.074219-14.945-3.1875-19.992-8.9375-5.043-5.75-7.3281-13.414-6.2578-20.988l22.836-160.04 0.003906 0.003906c1.5-10.469 6.7422-20.035 14.75-26.938 8.0117-6.8984 18.25-10.668 28.824-10.602h7v80.324c-7.8477 2.7734-13.914 9.1055-16.352 17.066-2.4336 7.9609-0.95313 16.602 3.9961 23.293 4.9531 6.6914 12.781 10.641 21.105 10.641s16.152-3.9492 21.105-10.641c4.9492-6.6914 6.4297-15.332 3.9961-23.293-2.4375-7.9609-8.5039-14.293-16.352-17.066v-80.324h11.637c4.832 0 8.75-3.918 8.75-8.75s-3.918-8.75-8.75-8.75h-36.137c-14.73-0.003906-28.969 5.3008-40.105 14.945-11.141 9.6406-18.426 22.973-20.531 37.555l-22.84 160.04c-1.8008 12.559 1.9414 25.281 10.25 34.867 8.3125 9.5898 20.375 15.094 33.062 15.094h305.73c12.453 0.070312 24.348-5.1719 32.699-14.406 8.3516-9.2383 12.371-21.598 11.051-33.98zm-197.05-476.61c26.375 0.019531 51.922 9.2031 72.27 25.977 20.352 16.777 34.242 40.102 39.293 65.984-19.484-5.0039-37.488-14.605-52.5-28-1.7656-1.8594-4.2617-2.8516-6.8242-2.7109-2.5703 0.15625-4.9375 1.4375-6.4766 3.5-34.035 45.062-115.76 33.602-156.71 24.238 5.6289-25.234 19.684-47.797 39.852-63.973 20.168-16.176 45.246-25 71.098-25.016zm-113.75 113.75v-7.3516c23.738 5.5 48 8.4336 72.363 8.75 35.438 0 71.051-7.7891 94.5-32.812 17.879 13.746 38.59 23.34 60.637 28.09v3.3242c0.007812 24.289-7.7617 47.941-22.168 67.496-14.406 19.555-34.695 33.984-57.895 41.18-16.422 5.0469-33.766 6.332-50.75 3.7617-5.6328-0.80859-11.191-2.0664-16.625-3.7617-23.199-7.1953-43.488-21.625-57.895-41.18-14.406-19.555-22.176-43.207-22.168-67.496zm79.273 179.02 5.6875-50.926h1.1367c3.7617 0.78906 7.6992 1.3984 11.551 1.9258h3.0625c8.7266 0.94531 17.527 0.94531 26.25 0h3.0625c3.9375-0.52344 7.7891-1.1367 11.637-1.9258h1.0508l5.6016 50.926c-10.922 3.6836-22.438 5.2852-33.949 4.7266-11.887 0.56641-23.777-1.0352-35.09-4.7266zm156.98 214.73h-43.75v-17.5h43.75z"/>
  <use x="70" y="691.25" xlink:href="#m"/>
  <use x="102.109375" y="691.25" xlink:href="#i"/>
  <use x="123.683594" y="691.25" xlink:href="#b"/>
  <use x="153.355469" y="691.25" xlink:href="#h"/>
  <use x="182.878906" y="691.25" xlink:href="#g"/>
  <use x="203.792969" y="691.25" xlink:href="#b"/>
  <use x="233.464844" y="691.25" xlink:href="#f"/>
  <use x="280.011719" y="691.25" xlink:href="#a"/>
  <use x="311.328125" y="691.25" xlink:href="#e"/>
  <use x="355.078125" y="691.25" xlink:href="#d"/>
  <use x="371.359375" y="691.25" xlink:href="#l"/>
  <use x="397.292969" y="691.25" xlink:href="#c"/>
  <use x="427.347656" y="691.25" xlink:href="#k"/>
  <use x="458.496094" y="691.25" xlink:href="#a"/>
  <use x="489.8125" y="691.25" xlink:href="#c"/>
  <use x="519.867188" y="691.25" xlink:href="#j"/>
 </g>
</svg>
