<svg width="200" height="174" viewBox="0 0 200 174" fill="none" xmlns="http://www.w3.org/2000/svg">
<path d="M199.646 72.0231C198.211 69.1226 163.343 0.582886 100.006 0.582886C36.6684 0.582886 1.80209 69.1201 0.365814 72.0231C-0.108917 72.9666 -0.108917 74.0798 0.365814 75.0233C4.83045 83.4539 10.0643 91.4558 16.0006 98.9233C17.142 100.379 19.2463 100.632 20.7003 99.4903C22.1557 98.3489 22.4087 96.2446 21.2673 94.7906C15.9737 88.0984 11.2355 80.9864 7.09964 73.5231C12.5674 63.7218 45.8371 7.25271 100.004 7.25271C154.171 7.25271 187.441 63.7245 192.908 73.5231C187.44 83.5237 154.171 139.794 100.004 139.794C92.426 139.776 84.8899 138.652 77.6366 136.46C75.8686 135.926 74.0024 136.926 73.4695 138.694C72.9353 140.46 73.9353 142.326 75.7018 142.861C83.5875 145.221 91.7728 146.434 100.004 146.461C163.341 146.461 198.207 77.9236 199.644 75.0244C200.118 74.0808 200.118 72.9677 199.644 72.0242L199.646 72.0231Z" fill="#8B2F26"/>
<path d="M100.006 127.059C114.225 127.059 127.863 121.408 137.917 111.351C147.97 101.294 153.615 87.6533 153.609 73.4338C153.603 59.2129 147.947 45.5782 137.886 35.53C127.825 25.4803 114.182 19.8415 99.9614 19.8537C85.742 19.8656 72.1088 25.5268 62.0633 35.5925C52.0182 45.6586 46.3855 59.302 46.4034 73.523C46.4302 87.7246 52.0883 101.337 62.1364 111.374C72.1846 121.408 85.8044 127.05 100.006 127.059V127.059ZM100.006 26.5196C112.45 26.5196 124.385 31.4604 133.187 40.2583C141.989 49.0549 146.936 60.9886 146.942 73.4327C146.948 85.8768 142.011 97.8135 133.218 106.62C124.426 115.426 112.495 120.379 100.051 120.391C87.6065 120.403 75.6667 115.472 66.8567 106.683C58.0467 97.8943 53.0879 85.9664 53.07 73.5222C53.0879 61.0796 58.0376 49.1502 66.8373 40.3524C75.6355 31.5541 87.563 26.603 100.006 26.5851L100.006 26.5196Z" fill="#8B2F26"/>
<path d="M100.006 103.526C107.963 103.526 115.594 100.365 121.22 94.7383C126.847 89.1113 130.007 81.48 130.007 73.5241C130.04 73.1238 130.04 72.7235 130.007 72.3232C129.787 70.4823 128.115 69.1697 126.274 69.39C124.433 69.6102 123.12 71.283 123.34 73.1238V73.5242C123.317 79.4917 121.006 85.2258 116.883 89.543C112.761 93.8586 107.142 96.4333 101.18 96.7339C95.2196 97.0345 89.3698 95.0388 84.8339 91.1575C80.2995 87.2762 77.4243 81.8058 76.7992 75.8694C76.1756 69.9331 77.8498 63.9834 81.4779 59.2434C85.1061 54.5037 90.4114 51.3351 96.3062 50.3888C98.0146 50.2176 99.3138 48.7741 99.3063 47.0552C99.3182 46.0701 98.8956 45.131 98.1485 44.4881C97.403 43.8437 96.4103 43.564 95.4385 43.7217C84.9884 44.8289 75.8793 51.3248 71.4269 60.8431C66.9729 70.3613 67.8255 81.517 73.6725 90.2482C79.5182 98.9808 89.5081 104.017 100.006 103.526Z" fill="#8B2F26"/>
<path d="M116.674 66.857C120.21 66.857 123.602 65.4522 126.103 62.9505C128.603 60.4504 130.008 57.0588 130.008 53.523C130.008 49.9855 128.603 46.5938 126.103 44.0939C123.601 41.5937 120.21 40.1889 116.674 40.1889C113.138 40.1889 109.746 41.5937 107.245 44.0939C104.745 46.594 103.34 49.9856 103.34 53.523C103.34 57.0589 104.745 60.4506 107.245 62.9505C109.746 65.4522 113.138 66.857 116.674 66.857ZM116.674 46.8559C118.442 46.8559 120.138 47.5584 121.388 48.8084C122.639 50.0585 123.341 51.7535 123.341 53.523C123.341 55.2909 122.639 56.9859 121.388 58.236C120.138 59.4876 118.442 60.19 116.674 60.19C114.906 60.19 113.209 59.4875 111.959 58.236C110.709 56.9859 110.007 55.2909 110.007 53.523C110.007 51.7535 110.709 50.0585 111.959 48.8084C113.209 47.5584 114.906 46.8559 116.674 46.8559Z" fill="#8B2F26"/>
<path d="M63.3373 123.992H49.5357V110.192C49.5357 109.308 49.1845 108.46 48.5595 107.834C47.9345 107.209 47.0862 106.858 46.2022 106.858H20.4686C18.6262 106.858 17.1351 108.349 17.1351 110.192V123.993L3.33352 123.992C1.49266 123.992 0 125.484 0 127.325V153.061C0 153.944 0.351212 154.793 0.976246 155.418C1.60128 156.043 2.44955 156.394 3.33352 156.394H17.1351V170.196C17.1351 171.08 17.4863 171.926 18.1113 172.553C18.7363 173.178 19.5846 173.529 20.4686 173.529H46.2038H46.2023C47.0862 173.529 47.9345 173.178 48.5595 172.553C49.1846 171.926 49.5358 171.08 49.5358 170.196V156.394H63.3373C64.2213 156.394 65.0696 156.043 65.6946 155.418C66.3196 154.793 66.6709 153.944 66.6709 153.061V127.325C66.6709 126.441 66.3196 125.593 65.6946 124.968C65.0696 124.343 64.2213 123.992 63.3373 123.992ZM60.0038 149.727H46.2022C44.3614 149.727 42.8687 151.22 42.8687 153.06V166.862H23.8021V153.06C23.8021 152.177 23.4509 151.328 22.8259 150.703C22.1993 150.078 21.3526 149.727 20.4686 149.727H6.66704V130.659H20.4686C21.3526 130.659 22.1993 130.308 22.8259 129.683C23.4509 129.058 23.8021 128.209 23.8021 127.325V113.525H42.8702V127.327L42.8687 127.325C42.8687 128.209 43.2199 129.058 43.845 129.683C44.4715 130.308 45.3183 130.659 46.2023 130.659H60.0038L60.0038 149.727Z" fill="#8B2F26"/>
</svg>
