<svg width="201" height="75" viewBox="0 0 201 75" fill="none" xmlns="http://www.w3.org/2000/svg">
<path d="M61.5926 21.5336C58.7065 21.4923 55.7169 21.451 52.7067 21.3896C43.3053 26.586 33.1605 35.0385 22.0078 48.8729C23.3482 51.9653 24.8737 54.461 26.5234 56.4609C47.8629 28.9976 64.0877 23.6364 77.8415 21.7822C72.7902 21.6996 67.5527 21.617 62.2538 21.5344H61.573L61.5926 21.5336Z" fill="#8B2F26"/>
<path d="M123.756 13.514C123.179 13.8856 122.663 14.2561 122.272 14.6691C120.333 16.669 119.756 18.854 119.653 21.4111C120.128 21.4524 120.561 21.4937 120.931 21.535C135.137 23.1432 151.941 27.5762 174.392 56.4623C176.062 54.4623 177.589 51.9681 178.908 48.8957C157.403 22.237 139.735 15.6398 123.755 13.5141L123.756 13.514Z" fill="#8B2F26"/>
<path d="M179.422 2.68864C173.67 0.586027 166.165 0.00793457 156.66 0.00793457C138.186 0.00793457 125.569 0.461031 118.25 5.96629L117.878 6.21405C115.384 7.88364 114.063 8.89475 112.518 8.89475C111.486 8.89475 110.353 8.44165 108.703 7.45172C106.353 5.67835 103.611 4.79221 100.477 4.79221C97.3428 4.79221 94.6009 5.65824 92.2504 7.45172C90.6009 8.44162 89.467 8.89475 88.4357 8.89475C86.8889 8.89475 85.5698 7.88473 83.0753 6.21405L82.7037 5.96629C75.3645 0.460774 62.7255 0.00793457 44.2508 0.00793457C34.7454 0.00793457 27.2203 0.584913 21.4882 2.68864C11.7777 5.30685 8.85039 9.14154 0.458984 9.14154V16.8935C0.994679 16.8935 1.4902 16.9348 1.92322 16.9962C5.53137 17.6145 6.45876 18.1513 8.1707 30.0683L8.29458 30.8719C8.45975 32.3562 8.66622 33.9232 8.93407 35.5314C10.3358 44.1705 12.6448 51.2628 15.8412 56.9323C17.3468 59.5918 19.0377 61.9633 20.9548 63.9632C27.0371 70.3547 35.202 73.5297 45.5107 73.5297C78.9124 73.5297 87.7349 50.0663 89.8405 33.654C90.6853 27.6957 91.8405 23.4893 93.077 20.4994C95.8604 13.8188 99.0968 13.2831 100.458 13.2831C101.819 13.2831 105.159 13.86 107.964 20.8711C109.16 23.8398 110.253 27.9434 111.077 33.674C113.16 50.0651 122.004 73.5497 155.407 73.5497C165.716 73.5497 173.881 70.3947 179.963 63.9832C181.881 61.9632 183.571 59.6116 185.077 56.932C188.293 51.2625 190.602 44.1691 191.984 35.5311C192.252 33.9028 192.458 32.3347 192.623 30.8716L192.747 30.068C194.458 18.1299 195.387 17.6153 198.995 16.9959C199.428 16.9133 199.922 16.8933 200.459 16.8933V9.14126C192.068 9.14126 189.14 5.30654 179.429 2.70835L179.422 2.68864ZM82.3544 32.399C82.3544 32.399 82.3544 32.5016 82.3343 32.5429C80.5197 47.491 72.7064 65.7789 45.51 65.7789C38.8919 65.7789 31.4691 64.5211 25.5933 57.6552C23.9025 55.6753 22.3357 53.2022 20.9337 50.1911C19.0365 46.0473 17.4696 40.8309 16.4182 34.2532C15.3669 27.7591 15.243 22.7279 16.0064 19.1611C16.1916 18.2951 16.4182 17.4916 16.7072 16.7896C17.7585 14.3566 19.2016 12.418 21.8822 10.9549C22.4804 10.6246 23.1187 10.3154 23.8408 10.0476H23.8821C27.9434 8.50077 34.1909 7.73854 44.2731 7.73854C63.4275 7.73854 72.8692 9.26414 77.529 11.9035C78.4364 12.4191 79.1785 12.976 79.7555 13.553C81.838 15.6969 82.5389 18.006 82.7454 20.295C82.8068 21.0171 82.828 21.718 82.828 22.4189C82.828 24.7904 82.684 29.6352 82.3537 32.3771L82.3544 32.399ZM185.362 25.7184C185.362 26.1302 185.321 26.5431 185.301 26.9761C185.301 27.3266 185.259 27.6982 185.239 28.0687C185.219 28.4403 185.178 28.8109 185.137 29.1825C185.095 29.6769 185.034 30.1925 184.971 30.7081C184.93 31.0172 184.91 31.3063 184.869 31.6355C184.766 32.5015 184.642 33.3676 184.477 34.295C184.209 35.9445 183.92 37.4915 183.591 38.9757C182.622 43.4087 181.385 47.1194 179.963 50.233C178.581 53.2429 177.014 55.7171 175.324 57.697C169.448 64.5628 162.025 65.8207 155.407 65.8207C128.211 65.8207 120.397 47.5322 118.582 32.5848C118.582 32.5435 118.582 32.4821 118.562 32.4408C118.232 29.6987 118.088 24.8528 118.088 22.4826V21.3275C118.191 18.7294 118.769 16.0497 121.139 13.5958C121.242 13.4719 121.387 13.3692 121.511 13.2655C125.326 9.80131 134.501 7.78139 156.644 7.78139C166.705 7.78139 172.974 8.56485 177.035 10.0904H177.076C177.468 10.2344 177.84 10.3996 178.19 10.5648C178.499 10.7087 178.767 10.8538 179.035 10.9978C181.694 12.462 183.159 14.3994 184.21 16.8324C184.499 17.5333 184.725 18.3379 184.911 19.204C185.013 19.637 185.096 20.1113 185.158 20.6057C185.344 21.9661 185.426 23.513 185.385 25.245V25.7394L185.362 25.7184Z" fill="#8B2F26"/>
<path d="M176.762 11.6368H176.701L176.453 11.513C176.041 11.3478 175.567 11.2038 175.093 11.0599C162.619 11.3076 150.001 11.4929 138.497 11.6781C134.745 11.7395 131.137 11.802 127.631 11.8433C127.157 11.9873 126.704 12.1324 126.291 12.2964C133.342 13.4303 140.744 15.5129 148.62 19.8219C159.878 19.6366 171.775 19.4502 183.342 19.2036C183.177 18.5027 182.992 17.8844 182.785 17.4302C181.527 14.5229 179.775 12.8321 176.765 11.637L176.762 11.6368Z" fill="#8B2F26"/>
<path d="M73.3234 11.8425C69.7978 11.7811 66.1685 11.7398 62.4164 11.6773C50.9111 11.4921 38.2932 11.3057 25.8206 11.059C25.3462 11.203 24.8931 11.3481 24.4601 11.5121L24.1923 11.636H24.1309C21.121 12.8324 19.3888 14.5222 18.1311 17.4292C17.9246 17.9036 17.7394 18.5017 17.5742 19.2227C32.6462 19.5318 48.2731 19.7796 62.2726 20.0061C68.8495 20.1088 75.1995 20.2126 81.1793 20.3153C80.9528 18.2327 80.2932 16.398 78.6437 14.6872C77.5511 13.5533 75.7778 12.6259 73.3247 11.8625L73.3234 11.8425Z" fill="#8B2F26"/>
<path d="M100.456 14.8539C99.4876 14.8539 97.0547 15.4521 94.7656 20.5446C98.992 20.6272 102.848 20.7298 106.271 20.8124C103.941 15.4723 101.446 14.8326 100.456 14.8326V14.8539Z" fill="#8B2F26"/>
<path d="M8.37775 67.7805C7.12 69.6979 7.65569 72.2746 9.55294 73.5326C10.2538 73.9857 11.0373 74.2134 11.8207 74.2134H11.9234C13.2225 74.1721 14.5003 73.5326 15.2635 72.3373C16.8918 69.8631 18.46 67.5341 20.0268 65.3064C18.0882 63.3065 16.3775 60.956 14.8519 58.3378C12.728 61.2863 10.584 64.3991 8.3778 67.7604L8.37775 67.7805Z" fill="#8B2F26"/>
<path d="M186.082 58.358C184.535 60.9762 182.825 63.3267 180.907 65.3266C182.474 67.5531 184.062 69.8833 185.67 72.3575C186.434 73.5326 187.712 74.1922 189.011 74.2335H189.113C189.897 74.2335 190.68 74.007 191.381 73.5527C193.278 72.295 193.814 69.718 192.556 67.8007C190.35 64.4402 188.206 61.3267 186.082 58.358Z" fill="#8B2F26"/>
</svg>
