<svg width="1052" height="95" viewBox="0 0 1052 95" fill="none" xmlns="http://www.w3.org/2000/svg">
<path d="M0.553242 2.94784H3.36924V92.8038H0.553242V94.3398H18.4732V92.8038H17.9612C10.6652 92.2918 5.03324 86.2758 5.03324 78.9798V5.25184L54.0572 94.3398H62.8892V2.94784H65.7052V1.28384H47.7852V2.81984L48.2972 2.94784C55.5932 3.33184 61.2252 9.34784 61.2252 16.6438V90.3718L12.2012 1.28384H0.553242V2.94784ZM129.072 42.3718C126.256 39.0438 122.8 36.4838 118.832 34.6918C114.864 32.7718 110.64 31.8758 106.16 31.7478C106.16 31.7478 106.032 31.7478 105.904 31.7478C101.424 31.7478 97.0722 32.7718 92.9762 34.6918C89.0082 36.4838 85.5522 39.0438 82.7362 42.3718C77.6162 48.1318 74.9282 55.4278 74.9282 63.1078C74.9282 70.6598 77.6162 78.0838 82.7362 83.8438C85.5522 87.0438 89.0082 89.6038 92.9762 91.5238C97.0722 93.3158 101.424 94.3398 105.904 94.3398C110.384 94.3398 114.736 93.3158 118.832 91.5238C122.8 89.6038 126.256 87.0438 129.072 83.8438C134.192 78.0838 136.88 70.6598 136.88 63.1078C136.88 55.4278 134.192 48.1318 129.072 42.3718ZM127.664 71.0438C127.536 76.8038 125.232 82.1798 121.136 86.2758C117.04 90.3718 111.664 92.6758 105.904 92.8038C100.144 92.6758 94.6402 90.3718 90.6722 86.2758C86.5762 82.1798 84.2722 76.8038 84.1442 71.0438V55.0438C84.2722 49.2838 86.5762 43.9078 90.6722 39.8118C94.6402 35.7158 100.144 33.4118 105.904 33.4118C111.664 33.4118 117.04 35.7158 121.136 39.8118C125.232 43.9078 127.536 49.2838 127.664 55.0438V71.0438ZM186.501 42.6278C185.093 39.9398 183.045 37.5078 180.613 35.7158C177.285 33.1558 173.189 31.7478 168.965 31.7478C168.965 31.7478 168.837 31.7478 168.709 31.7478C164.869 31.7478 161.285 32.7718 158.085 34.8198V31.7478H146.053V33.4118H148.869V92.8038H146.053V94.3398H160.901V92.8038H158.085V59.6518V36.7398C161.157 34.5638 164.869 33.4118 168.709 33.4118C168.837 33.4118 168.965 33.4118 168.965 33.4118C171.141 33.4118 173.317 34.1798 175.109 35.4598C177.669 37.5078 179.205 40.4518 179.333 43.7798C179.333 43.7798 179.333 43.9078 179.333 44.0358C179.333 44.1638 179.333 44.1638 179.333 44.2918V52.4838H188.549V51.5878C188.549 48.5158 187.909 45.4438 186.501 42.6278ZM270.891 92.8038V51.4598V50.9478C270.763 48.0038 269.995 45.1878 268.715 42.6278C267.307 39.9398 265.387 37.6358 262.955 35.8438C259.499 33.2838 255.531 31.8758 251.307 31.8758C251.307 31.8758 251.051 31.8758 250.923 31.8758C246.699 31.8758 242.475 33.1558 239.019 35.8438C237.867 36.7398 236.715 37.7638 235.691 38.9158C234.795 37.7638 233.643 36.7398 232.363 35.8438C229.035 33.2838 224.939 31.8758 220.715 31.8758C220.715 31.8758 220.587 31.8758 220.459 31.8758C216.619 31.8758 213.035 32.8998 209.835 34.9478V31.7478H197.803V33.4118H200.619V92.8038H197.803V94.3398H212.651V92.8038H209.835V36.8678C212.907 34.6918 216.619 33.5398 220.459 33.5398C220.587 33.5398 220.587 33.5398 220.715 33.5398C222.891 33.5398 225.067 34.3078 226.859 35.5878C229.419 37.5078 230.955 40.5798 231.083 43.7798V92.8038H228.267V94.3398H243.243V92.8038H240.299V51.4598V50.9478C240.171 48.0038 239.531 45.1878 238.251 42.6278C237.739 41.8598 237.355 41.0918 236.715 40.3238C237.739 39.1718 238.763 38.0198 240.043 37.1238C243.243 34.6918 246.955 33.5398 250.923 33.5398C251.051 33.5398 251.179 33.5398 251.179 33.5398C253.483 33.5398 255.531 34.3078 257.323 35.5878C260.011 37.5078 261.547 40.5798 261.547 43.7798V92.8038H258.731V94.3398H273.707V92.8038H270.891ZM330.547 51.5878C330.547 48.5158 329.779 45.4438 328.371 42.6278C326.963 39.9398 324.915 37.5078 322.483 35.7158C319.155 33.1558 315.187 31.7478 310.835 31.7478H310.579C306.227 31.7478 302.131 33.1558 298.675 35.7158C296.243 37.5078 294.195 39.9398 292.915 42.6278C291.507 45.4438 290.739 48.5158 290.739 51.5878C290.739 53.7638 290.995 55.8118 291.763 57.8598C291.379 58.1158 290.995 58.3718 290.739 58.6278C288.307 60.4198 286.259 62.8518 284.851 65.5398C283.443 68.2278 282.803 71.2998 282.803 74.4998C282.803 77.6998 283.443 80.7718 284.851 83.5878C286.259 86.2758 288.307 88.5798 290.739 90.3718C294.067 92.9318 298.163 94.3398 302.387 94.3398H302.643C306.995 94.3398 311.219 93.0598 314.803 90.3718C317.235 88.4518 319.283 86.1478 320.691 83.3318C320.819 82.9478 321.075 82.5638 321.203 82.1798V94.3398H333.363V92.8038H330.547V51.5878ZM321.203 74.2438C321.203 77.1878 320.563 80.0038 319.155 82.5638C317.875 85.1238 316.083 87.2998 313.779 89.0918C310.579 91.5238 306.739 92.8038 302.643 92.8038C302.515 92.8038 302.387 92.8038 302.387 92.8038C300.211 92.6758 298.035 91.9078 296.243 90.6278C293.683 88.7078 292.147 85.6358 292.019 82.4358C292.019 82.1798 292.019 66.9478 292.019 66.5638C292.147 63.3638 293.683 60.4198 296.243 58.3718C298.035 57.0918 300.211 56.3238 302.387 56.3238H310.579C313.267 56.3238 315.827 55.4278 318.003 53.8918C319.283 52.8678 320.435 51.5878 321.203 50.1798V74.2438ZM321.203 44.2918C321.075 47.6198 319.539 50.5638 316.979 52.4838C315.187 53.8918 312.883 54.6598 310.579 54.6598H302.387C299.187 54.6598 295.987 55.4278 293.171 56.9638C292.659 55.2998 292.403 53.5078 292.403 51.5878C292.403 48.7718 293.043 45.9558 294.323 43.3958C295.603 40.8358 297.395 38.6598 299.699 36.9958C302.899 34.6918 306.611 33.4118 310.579 33.4118C310.707 33.4118 310.835 33.4118 310.835 33.4118C313.139 33.4118 315.187 34.1798 316.979 35.4598C319.539 37.5078 321.075 40.4518 321.203 43.7798V44.2918ZM384.924 92.8038V51.4598V50.9478C384.796 48.0038 384.156 45.3158 382.876 42.6278C381.468 39.9398 379.42 37.6358 376.988 35.8438C373.66 33.2838 369.564 31.8758 365.34 31.8758C365.34 31.8758 365.212 31.8758 365.084 31.8758C361.244 31.8758 357.66 32.8998 354.46 34.9478V31.7478H342.428V33.4118H345.244V92.8038H342.428V94.3398H357.276V92.8038H354.46V36.8678C357.532 34.6918 361.244 33.5398 365.084 33.5398C365.212 33.5398 365.34 33.5398 365.34 33.5398C367.516 33.5398 369.692 34.3078 371.484 35.5878C374.044 37.5078 375.58 40.5798 375.708 43.7798V92.8038H372.892V94.3398H387.868V92.8038H384.924ZM436.352 1.28384H424.448V2.94784H427.392L451.84 94.3398H460.8L476.032 8.57984C476.928 5.25184 480 2.94784 483.584 2.94784H488.448V1.28384H469.248V2.94784H475.392L459.904 89.7318L436.352 1.28384ZM507.261 92.8038V31.2358L494.973 36.8678L495.613 38.4038L498.045 37.2518V92.8038H495.229V94.3398H510.077V92.8038H507.261ZM502.653 22.0198C505.213 22.0198 507.261 19.8438 507.261 17.2838C507.261 14.7238 505.213 12.6758 502.653 12.6758C500.093 12.6758 498.045 14.7238 498.045 17.2838C498.045 19.8438 500.093 22.0198 502.653 22.0198ZM560.477 70.6598C559.837 67.7158 558.557 65.0278 556.765 62.7238C556.253 61.9558 555.613 61.3158 554.973 60.5478C552.797 58.4998 549.213 56.5798 546.269 55.0438C543.325 53.6358 538.461 51.3318 538.461 51.3318C532.317 48.3878 525.917 44.8038 525.405 41.4758C525.149 40.4518 525.533 39.5558 526.557 38.5318C526.557 38.4038 526.685 38.4038 526.685 38.4038C529.629 35.3318 533.981 33.5398 538.717 33.4118C538.973 33.4118 539.357 33.4118 539.613 33.4118C543.837 33.4118 548.189 34.6918 551.389 36.9958C551.645 37.1238 551.773 37.2518 551.901 37.3798C552.541 37.8918 553.181 38.4038 553.821 38.9158C557.149 42.2438 558.941 46.5958 559.069 51.3318V51.8438H560.733V32.0038H559.069V32.5158C559.069 34.9478 557.405 36.6118 554.973 36.6118C554.333 36.6118 553.565 36.4838 552.925 36.0998C552.669 35.8438 552.541 35.7158 552.413 35.7158C548.829 33.1558 544.221 31.7478 539.613 31.7478C539.229 31.7478 538.973 31.7478 538.717 31.7478C533.469 32.0038 528.861 33.9238 525.533 37.1238C525.405 37.2518 525.405 37.2518 525.405 37.3798C523.613 39.0438 522.589 40.8358 521.693 43.0118C520.925 45.1878 520.797 47.7478 521.437 49.9238C522.077 52.4838 523.741 54.4038 526.045 55.5558H526.173C534.493 59.6518 550.493 67.3318 550.877 67.5878C552.029 68.0998 552.925 68.8678 553.821 69.6358C556.125 72.0678 557.405 75.1398 557.405 78.3398C557.533 81.6678 556.253 84.7398 554.077 87.1718L553.821 87.4278C550.621 90.4998 546.525 92.4198 542.173 92.6758C541.789 92.6758 541.277 92.8038 540.893 92.8038C537.053 92.8038 533.213 91.5238 530.013 89.2198C529.885 89.0918 529.629 88.8358 529.501 88.7078C528.989 88.3238 528.477 87.9398 527.965 87.4278C524.509 83.9718 522.589 79.4918 522.589 74.6278V73.9878H521.053V94.2118H522.589V93.5718C522.589 91.2678 524.381 89.4758 526.429 89.4758C527.197 89.4758 527.837 89.7318 528.477 90.1158C528.605 90.2438 528.861 90.3718 528.989 90.4998H529.117C532.445 93.0598 536.669 94.3398 540.893 94.3398C541.405 94.3398 541.789 94.3398 542.301 94.3398C547.037 94.0838 551.517 92.0358 554.973 88.5798C555.101 88.4518 555.101 88.4518 555.229 88.3238C559.837 83.5878 561.757 76.9318 560.477 70.6598ZM584.136 92.8038V31.2358L571.848 36.8678L572.488 38.4038L574.92 37.2518V92.8038H572.104V94.3398H586.952V92.8038H584.136ZM579.528 22.0198C582.088 22.0198 584.136 19.8438 584.136 17.2838C584.136 14.7238 582.088 12.6758 579.528 12.6758C576.968 12.6758 574.92 14.7238 574.92 17.2838C574.92 19.8438 576.968 22.0198 579.528 22.0198ZM652.072 42.3718C649.256 39.0438 645.8 36.4838 641.832 34.6918C637.864 32.7718 633.64 31.8758 629.16 31.7478C629.16 31.7478 629.032 31.7478 628.904 31.7478C624.424 31.7478 620.072 32.7718 615.976 34.6918C612.008 36.4838 608.552 39.0438 605.736 42.3718C600.616 48.1318 597.928 55.4278 597.928 63.1078C597.928 70.6598 600.616 78.0838 605.736 83.8438C608.552 87.0438 612.008 89.6038 615.976 91.5238C620.072 93.3158 624.424 94.3398 628.904 94.3398C633.384 94.3398 637.736 93.3158 641.832 91.5238C645.8 89.6038 649.256 87.0438 652.072 83.8438C657.192 78.0838 659.88 70.6598 659.88 63.1078C659.88 55.4278 657.192 48.1318 652.072 42.3718ZM650.664 71.0438C650.536 76.8038 648.232 82.1798 644.136 86.2758C640.04 90.3718 634.664 92.6758 628.904 92.8038C623.144 92.6758 617.64 90.3718 613.672 86.2758C609.576 82.1798 607.272 76.8038 607.144 71.0438V55.0438C607.272 49.2838 609.576 43.9078 613.672 39.8118C617.64 35.7158 623.144 33.4118 628.904 33.4118C634.664 33.4118 640.04 35.7158 644.136 39.8118C648.232 43.9078 650.536 49.2838 650.664 55.0438V71.0438ZM711.549 92.8038V51.4598V50.9478C711.421 48.0038 710.781 45.3158 709.501 42.6278C708.093 39.9398 706.045 37.6358 703.613 35.8438C700.285 33.2838 696.189 31.8758 691.965 31.8758C691.965 31.8758 691.837 31.8758 691.709 31.8758C687.869 31.8758 684.285 32.8998 681.085 34.9478V31.7478H669.053V33.4118H671.869V92.8038H669.053V94.3398H683.901V92.8038H681.085V36.8678C684.157 34.6918 687.869 33.5398 691.709 33.5398C691.837 33.5398 691.965 33.5398 691.965 33.5398C694.141 33.5398 696.317 34.3078 698.109 35.5878C700.669 37.5078 702.205 40.5798 702.333 43.7798V92.8038H699.517V94.3398H714.493V92.8038H711.549ZM839.393 19.8438C836.577 16.1318 833.249 12.9318 829.409 10.1158C821.601 4.35584 812.257 1.41184 802.529 1.28384H801.633C795.361 1.28384 789.345 2.56384 783.585 4.99584C778.081 7.42784 773.217 10.7558 768.993 15.1078C764.769 19.3318 761.441 24.3238 759.137 29.8278C756.705 35.4598 755.553 41.6038 755.553 47.8758C755.553 54.0198 756.705 60.1638 759.137 65.7958C761.441 71.2998 764.769 76.2918 768.993 80.6438C773.217 84.8678 778.081 88.1958 783.585 90.6278C789.345 93.0598 795.361 94.3398 801.505 94.3398H801.633H802.529C810.849 94.3398 818.913 92.0358 825.953 87.8118C832.865 83.7158 838.497 77.8278 842.465 70.9158L842.849 70.4038L841.441 69.6358L841.057 70.1478C837.217 76.8038 831.713 82.4358 825.185 86.4038C818.273 90.4998 810.465 92.6758 802.529 92.8038H801.633C791.777 92.5478 782.561 87.9398 775.521 79.4918C768.609 71.0438 764.769 59.7798 764.769 47.8758C764.769 35.8438 768.609 24.7078 775.521 16.1318C782.561 7.81184 791.777 3.07584 801.633 2.94784H802.529C810.337 3.07584 817.761 6.01984 823.905 11.3958C830.177 16.7718 834.657 24.1958 837.217 32.7718L837.473 33.4118H846.433L846.049 32.2598C844.385 27.9078 842.209 23.6838 839.393 19.8438ZM867.841 92.8038V0.771843L855.553 6.40384L856.193 7.81184L858.625 6.78784V92.8038H855.809V94.3398H870.657V92.8038H867.841ZM894.011 92.8038V31.2358L881.723 36.8678L882.363 38.4038L884.795 37.2518V92.8038H881.979V94.3398H896.827V92.8038H894.011ZM889.403 22.0198C891.963 22.0198 894.011 19.8438 894.011 17.2838C894.011 14.7238 891.963 12.6758 889.403 12.6758C886.843 12.6758 884.795 14.7238 884.795 17.2838C884.795 19.8438 886.843 22.0198 889.403 22.0198ZM950.299 92.8038V51.4598V50.9478C950.171 48.0038 949.531 45.3158 948.251 42.6278C946.843 39.9398 944.795 37.6358 942.363 35.8438C939.035 33.2838 934.939 31.8758 930.715 31.8758C930.715 31.8758 930.587 31.8758 930.459 31.8758C926.619 31.8758 923.035 32.8998 919.835 34.9478V31.7478H907.803V33.4118H910.619V92.8038H907.803V94.3398H922.651V92.8038H919.835V36.8678C922.907 34.6918 926.619 33.5398 930.459 33.5398C930.587 33.5398 930.715 33.5398 930.715 33.5398C932.891 33.5398 935.067 34.3078 936.859 35.5878C939.419 37.5078 940.955 40.5798 941.083 43.7798V92.8038H938.267V94.3398H953.243V92.8038H950.299ZM976.511 92.8038V31.2358L964.223 36.8678L964.863 38.4038L967.295 37.2518V92.8038H964.479V94.3398H979.327V92.8038H976.511ZM971.903 22.0198C974.463 22.0198 976.511 19.8438 976.511 17.2838C976.511 14.7238 974.463 12.6758 971.903 12.6758C969.343 12.6758 967.295 14.7238 967.295 17.2838C967.295 19.8438 969.343 22.0198 971.903 22.0198ZM1049.57 70.7878C1048.42 75.1398 1046.24 79.3638 1043.17 82.6918C1040.48 85.7638 1037.28 88.1958 1033.44 89.9878C1029.6 91.7798 1025.5 92.6758 1021.28 92.8038C1015.52 92.6758 1010.02 90.3718 1006.05 86.2758C1001.95 82.1798 999.647 76.8038 999.519 71.0438V55.0438C999.647 49.2838 1001.95 43.9078 1006.05 39.8118C1010.02 35.7158 1015.52 33.4118 1021.28 33.4118C1027.04 33.5398 1032.42 35.7158 1036.51 39.8118C1040.61 43.9078 1042.91 49.2838 1043.04 55.1718V55.9398H1051.49L1051.23 54.9158C1049.95 50.3078 1047.65 45.9558 1044.45 42.3718C1041.63 39.0438 1038.18 36.4838 1034.21 34.6918C1030.24 32.7718 1026.02 31.8758 1021.54 31.7478C1021.54 31.7478 1021.41 31.7478 1021.28 31.7478C1016.8 31.7478 1012.45 32.7718 1008.35 34.6918C1004.38 36.4838 1000.93 39.0438 998.111 42.3718C992.991 48.1318 990.303 55.4278 990.303 63.1078C990.303 70.6598 992.991 78.0838 998.111 83.8438C1000.93 87.0438 1004.38 89.6038 1008.35 91.5238C1012.45 93.3158 1016.8 94.3398 1021.28 94.3398C1021.41 94.3398 1021.54 94.3398 1021.54 94.3398C1026.02 94.3398 1030.24 93.3158 1034.21 91.5238C1038.18 89.6038 1041.63 87.0438 1044.45 83.8438C1047.65 80.2598 1049.95 75.9078 1051.23 71.2998L1051.36 70.6598L1049.82 70.2758L1049.57 70.7878Z" fill="#B5CBD9"/>
</svg>
