<svg width="145" height="173" viewBox="0 0 145 173" fill="none" xmlns="http://www.w3.org/2000/svg">
<path d="M141.336 0.529053H20.9465C19.3636 0.529053 18.0801 1.81255 18.0801 3.39547V57.8573C18.0801 59.4402 19.3636 60.7237 20.9465 60.7237C22.5294 60.7237 23.8129 59.4402 23.8129 57.8573V6.26188H138.469V166.781H38.145C36.5621 166.781 35.2786 168.064 35.2786 169.647C35.2786 171.23 36.5621 172.514 38.145 172.514H141.336C142.096 172.514 142.825 172.212 143.363 171.674C143.9 171.137 144.202 170.407 144.202 169.647V3.39547C144.202 2.63536 143.9 1.90595 143.363 1.3685C142.825 0.831058 142.096 0.529053 141.336 0.529053Z" fill="#8B2F26"/>
<path d="M29.5451 66.4565H12.3466C10.7637 66.4565 9.48017 67.74 9.48017 69.3229V73.881L1.71268 81.6203C1.17524 82.1603 0.877063 82.8935 0.880896 83.6549V103.72C0.880896 105.303 2.16439 106.586 3.74731 106.586C5.33022 106.586 6.61372 105.303 6.61372 103.72V84.8296L9.48013 81.9632V161.047C9.47629 161.808 9.77446 162.541 10.3119 163.081L18.9112 171.681C19.4486 172.223 20.1818 172.529 20.9458 172.529C21.7097 172.529 22.443 172.223 22.9804 171.681L31.5797 163.081C32.1171 162.541 32.4153 161.808 32.4114 161.047V69.3215C32.4114 68.5614 32.1094 67.832 31.572 67.2946C31.0345 66.7571 30.3051 66.4551 29.545 66.4551L29.5451 66.4565ZM26.6786 159.872L20.9458 165.605L15.213 159.872V86.5213H26.6786V159.872ZM26.6786 80.7885H15.213V72.1893H26.6786V80.7885Z" fill="#8B2F26"/>
<path d="M84.6092 17.7276H69.0742C67.49 17.7276 66.2078 19.0111 66.2078 20.594V28.1043H58.6975C57.1146 28.1043 55.8311 29.3878 55.8311 30.9707V46.5352C55.8311 47.2953 56.1331 48.0247 56.6705 48.5622C57.208 49.0996 57.9374 49.4016 58.6975 49.4016H66.2078V56.9119C66.2078 57.672 66.5098 58.4014 67.0472 58.9389C67.5847 59.4763 68.3141 59.7783 69.0742 59.7783H84.6105H84.6092C85.3693 59.7783 86.0987 59.4763 86.6362 58.9389C87.1736 58.4014 87.4756 57.672 87.4756 56.9119V49.4016H94.9859C95.746 49.4016 96.4755 49.0996 97.0129 48.5622C97.5503 48.0247 97.8524 47.2953 97.8524 46.5352V30.9707C97.8524 30.2106 97.5504 29.4812 97.0129 28.9438C96.4755 28.4063 95.746 28.1043 94.9859 28.1043H87.4756V20.594C87.4756 19.8339 87.1736 19.1045 86.6362 18.567C86.0987 18.0296 85.3693 17.7276 84.6092 17.7276ZM92.1195 33.8371V43.6688H84.6092C83.0263 43.6688 81.7428 44.9523 81.7428 46.5352V54.0455H71.9406V46.5352C71.9406 45.7751 71.6386 45.0457 71.1012 44.5082C70.5624 43.9708 69.8343 43.6688 69.0742 43.6688H61.5639V33.8371H69.0742C69.8343 33.8371 70.5624 33.5351 71.1012 32.9977C71.6386 32.4603 71.9406 31.7308 71.9406 30.9707V23.4604H81.7441V30.9707H81.7428C81.7428 31.7308 82.0448 32.4603 82.5822 32.9977C83.121 33.5351 83.8491 33.8371 84.6092 33.8371H92.1195Z" fill="#8B2F26"/>
<path d="M42.4424 75.0558C42.4424 75.8159 42.7444 76.5453 43.2818 77.0827C43.8193 77.6202 44.5487 77.9222 45.3088 77.9222H122.702C124.285 77.9222 125.568 76.6387 125.568 75.0558C125.568 73.4729 124.285 72.1894 122.702 72.1894H45.3088C43.7259 72.1894 42.4424 73.4729 42.4424 75.0558Z" fill="#8B2F26"/>
<path d="M45.3117 95.1207H122.705C124.288 95.1207 125.571 93.8372 125.571 92.2543C125.571 90.6714 124.288 89.3879 122.705 89.3879H45.3117C43.7288 89.3879 42.4453 90.6714 42.4453 92.2543C42.4453 93.8372 43.7288 95.1207 45.3117 95.1207Z" fill="#8B2F26"/>
<path d="M45.3117 112.319H122.705C124.288 112.319 125.571 111.036 125.571 109.453C125.571 107.87 124.288 106.586 122.705 106.586H45.3117C43.7288 106.586 42.4453 107.87 42.4453 109.453C42.4453 111.036 43.7288 112.319 45.3117 112.319Z" fill="#8B2F26"/>
<path d="M45.3117 129.518H88.3079C89.8908 129.518 91.1743 128.234 91.1743 126.651C91.1743 125.068 89.8908 123.785 88.3079 123.785H45.3117C43.7288 123.785 42.4453 125.068 42.4453 126.651C42.4453 128.234 43.7288 129.518 45.3117 129.518Z" fill="#8B2F26"/>
<path d="M45.3117 146.716H88.3079C89.8908 146.716 91.1743 145.433 91.1743 143.85C91.1743 142.267 89.8908 140.983 88.3079 140.983H45.3117C43.7288 140.983 42.4453 142.267 42.4453 143.85C42.4453 145.433 43.7288 146.716 45.3117 146.716Z" fill="#8B2F26"/>
<path d="M123.219 133.904L115.135 136.599C114.417 136.827 113.635 136.71 113.015 136.283C112.406 135.833 112.045 135.121 112.04 134.363C112.052 131.68 110.729 129.167 108.509 127.659C106.289 126.153 103.465 125.85 100.976 126.853L95.673 128.975V128.974C94.9653 129.255 94.3985 129.805 94.0977 130.504C93.7957 131.204 93.7855 131.994 94.067 132.7C94.3485 133.408 94.8988 133.974 95.5975 134.275C96.2974 134.577 97.087 134.587 97.7934 134.306L103.096 132.184C103.814 131.881 104.637 131.968 105.276 132.413C105.926 132.848 106.313 133.58 106.307 134.363C106.315 136.504 107.169 138.556 108.683 140.071C110.197 141.585 112.248 142.438 114.391 142.446C115.266 142.439 116.135 142.304 116.97 142.045L125.054 139.35C126.558 138.844 127.366 137.215 126.86 135.71C126.353 134.206 124.722 133.397 123.219 133.904Z" fill="#8B2F26"/>
</svg>
